<?xml version="1.0" encoding="utf-8"?>
<!-- Generator: Adobe Illustrator 24.3.0, SVG Export Plug-In . SVG Version: 6.00 Build 0)  -->
<svg version="1.1" id="Layer_1" xmlns="http://www.w3.org/2000/svg" xmlns:xlink="http://www.w3.org/1999/xlink" x="0px" y="0px"
	 viewBox="0 0 173.8 33.1" style="enable-background:new 0 0 173.8 33.1;" xml:space="preserve">
<style type="text/css">
	.st0{fill:#161615;}
</style>
<path d="M37.9,26.4h-0.2V3.5h-7.1v28.8h19.1v-6L37.9,26.4z"/>
<path d="M74,3.5v15.2c0,3.3,0,8.2-5.4,8.2c-5,0-5.4-4.1-5.4-8.2V3.5h-7.1v16.2c0,4,0.2,7.5,3,10.2c2.1,2,5.5,3.2,9.5,3.2
	s7.5-1.2,9.5-3.2c2.8-2.7,3-6.2,3-10.2V3.5L74,3.5z"/>
<path d="M99.2,14.9l-1.9-0.6c-1.3-0.4-3.5-1.1-3.5-3c0-1.8,2.1-2.7,3.5-2.7c1.8,0,3.6,0.7,5,1.8l2.8-5.4c-2.7-1.4-5.8-2.2-8.8-2.3
	c-5.9,0-9.9,3.9-9.9,9.6c0,5.4,2.9,6.7,7.7,8l0.2,0.1c1.7,0.5,4.6,1.3,4.6,3.5c0,2.2-2,3.2-3.9,3.2c-2.2,0-4.4-1-6.7-2.9l-3,5.7
	c2.9,2,6.4,3.1,10,3.2c3,0.1,5.8-0.9,8.2-2.7c2-1.7,2.9-4.3,2.9-7.7C106.2,18.8,104,16.4,99.2,14.9z"/>
<path d="M110.5,13.5h7.1v18.8h-7.1V13.5z"/>
<path d="M144.8,3.5L130.4,22V3.5h-7.1v28.8h7.3l14.4-18.6v18.6h7.1V3.5H144.8z"/>
<path d="M157.6,3.5v28.8h16.2v-6h-9v-5.5h8.6v-6h-8.6V9.5h9v-6L157.6,3.5z"/>
<path d="M44.2,3.5h5.4v11.1h-5.4V3.5z"/>
<path d="M117.8,6.5c0,2.1-1.7,3.8-3.8,3.8s-3.8-1.7-3.8-3.8c0-2.1,1.7-3.8,3.8-3.8h0C116.1,2.7,117.8,4.4,117.8,6.5z"/>
<path class="st0" d="M22.4,3.6l1.5,6.1v22.7H0V9.6l1.5-6.1h7.2C8.5,3.3,8.5,3,8.5,2.7C8.5,2.1,8.9,0,11.9,0s3.5,2.1,3.5,2.7
	c0,0.3-0.1,0.6-0.2,0.9H22.4z M1.7,9.6v21h8.2V26c0-1.1,0.9-2.1,2-2.1c1.1,0,2.1,0.9,2.1,2c0,0,0,0.1,0,0.1v4.6h8.2v-21H1.7z
	 M3.2,24v5.2h1.9V24H3.2z M6.5,24v5.2h1.9V24H6.5z M18.8,24v5.2h1.9V24H18.8z M15.5,24v5.2h1.9V24H15.5z M8.4,19.7H3.2v2.1h5.2V19.7
	z M8.4,15.4H3.2v2.1h5.2V15.4z M8.4,11.1H3.2v2.1h5.2V11.1z M15.5,21.8h5.2v-2.1h-5.2V21.8z M15.5,17.5h5.2v-2.1h-5.2V17.5z
	 M15.5,13.2h5.2v-2.1h-5.2V13.2z M9.9,21.8H14v-2.1H9.9V21.8z M9.9,17.5H14v-2.1H9.9V17.5z M9.9,13.2H14v-2.1H9.9V13.2z M12,1.5
	c-1.1,0-1.9,0.5-1.9,1.2c0,0.3,0.1,0.6,0.3,0.9h3.2c0.2-0.2,0.3-0.5,0.3-0.8C13.8,2,13.1,1.5,12,1.5L12,1.5z M14,5.9H9.9v1.5H14V5.9
	z M20.7,5.9h-5.2v1.5h5.2V5.9z M6.4,5.9H5.2v1.5h1.2V5.9z"/>
</svg>
