<?xml version="1.0" encoding="utf-8"?>
<!-- Generator: Adobe Illustrator 24.3.0, SVG Export Plug-In . SVG Version: 6.00 Build 0)  -->
<svg version="1.1" id="Layer_1" xmlns="http://www.w3.org/2000/svg" xmlns:xlink="http://www.w3.org/1999/xlink" x="0px" y="0px"
	 viewBox="0 0 173.8 33.1" style="enable-background:new 0 0 173.8 33.1;" xml:space="preserve">
<style type="text/css">
	.st0{fill:#FFFFFF;}
</style>
<path class="st0" d="M22.2,30.6H14V26c0,0,0-0.1,0-0.1c0-1.1-1-2-2.1-2s-2,1-2,2.1v4.6H1.7v-21h20.5V30.6z"/>
<path class="st0" d="M22.4,3.6h-7.2c0.1-0.3,0.2-0.6,0.2-0.9C15.4,2.1,15,0,11.9,0S8.5,2.1,8.5,2.7c0,0.3,0.1,0.6,0.2,0.9H1.5L0,9.6
	v22.7h23.9V9.6L22.4,3.6z"/>
<path class="st0" d="M37.9,26.4h-0.2V3.5h-7.1v28.8h19.1v-6L37.9,26.4z"/>
<path class="st0" d="M74,3.5v15.2c0,3.3,0,8.2-5.4,8.2c-5,0-5.4-4.1-5.4-8.2V3.5h-7.1v16.2c0,4,0.2,7.5,3,10.2
	c2.1,2,5.5,3.2,9.5,3.2s7.5-1.2,9.5-3.2c2.8-2.7,3-6.2,3-10.2V3.5L74,3.5z"/>
<path class="st0" d="M99.2,14.9l-1.9-0.6c-1.3-0.4-3.5-1.1-3.5-3c0-1.8,2.1-2.7,3.5-2.7c1.8,0,3.6,0.7,5,1.8l2.8-5.4
	c-2.7-1.4-5.8-2.2-8.8-2.3c-5.9,0-9.9,3.9-9.9,9.6c0,5.4,2.9,6.7,7.7,8l0.2,0.1c1.7,0.5,4.6,1.3,4.6,3.5c0,2.2-2,3.2-3.9,3.2
	c-2.2,0-4.4-1-6.7-2.9l-3,5.7c2.9,2,6.4,3.1,10,3.2c3,0.1,5.8-0.9,8.2-2.7c2-1.7,2.9-4.3,2.9-7.7C106.2,18.8,104,16.4,99.2,14.9z"/>
<path class="st0" d="M110.5,13.5h7.1v18.8h-7.1V13.5z"/>
<path class="st0" d="M144.8,3.5L130.4,22V3.5h-7.1v28.8h7.3l14.4-18.6v18.6h7.1V3.5H144.8z"/>
<path class="st0" d="M157.6,3.5v28.8h16.2v-6h-9v-5.5h8.6v-6h-8.6V9.5h9v-6L157.6,3.5z"/>
<path class="st0" d="M44.2,3.5h5.4v11.1h-5.4V3.5z"/>
<path class="st0" d="M117.8,6.5c0,2.1-1.7,3.8-3.8,3.8s-3.8-1.7-3.8-3.8c0-2.1,1.7-3.8,3.8-3.8h0C116.1,2.7,117.8,4.4,117.8,6.5z"/>
<rect x="15.5" y="15.4" width="5.2" height="2.1"/>
<rect x="18.8" y="24" width="1.9" height="5.2"/>
<rect x="15.5" y="24" width="1.9" height="5.2"/>
<rect x="15.5" y="11.1" width="5.2" height="2.1"/>
<rect x="3.2" y="24" width="1.9" height="5.2"/>
<rect x="15.5" y="5.9" width="5.2" height="1.5"/>
<path d="M12,1.5L12,1.5c1.1,0,1.9,0.6,1.9,1.2c0,0.3-0.1,0.6-0.3,0.8h-3.2c-0.2-0.2-0.3-0.5-0.3-0.9C10.1,2,10.8,1.5,12,1.5z"/>
<rect x="9.9" y="5.9" width="4.1" height="1.5"/>
<rect x="5.2" y="5.9" width="1.2" height="1.5"/>
<rect x="3.2" y="15.4" width="5.2" height="2.1"/>
<rect x="6.5" y="24" width="1.9" height="5.2"/>
<rect x="3.2" y="11.1" width="5.2" height="2.1"/>
<rect x="3.2" y="19.7" width="5.2" height="2.1"/>
<rect x="9.9" y="19.7" width="4.1" height="2.1"/>
<rect x="15.5" y="19.7" width="5.2" height="2.1"/>
<rect x="9.9" y="11.1" width="4.1" height="2.1"/>
<rect x="9.9" y="15.4" width="4.1" height="2.1"/>
</svg>
