<?xml version="1.0" encoding="utf-8"?>
<!-- Generator: Adobe Illustrator 25.2.3, SVG Export Plug-In . SVG Version: 6.00 Build 0)  -->
<svg version="1.1" id="Layer_1" xmlns="http://www.w3.org/2000/svg" xmlns:xlink="http://www.w3.org/1999/xlink" x="0px" y="0px"
	 viewBox="0 0 35 35" style="enable-background:new 0 0 35 35;" xml:space="preserve">
<style type="text/css">
	.st0{fill:#161615;}
</style>
<path class="st0" d="M28,4.9l1.5,6.1v22.7H5.6V10.9l1.5-6.1h7.2c-0.2-0.2-0.2-0.5-0.2-0.8c0-0.6,0.4-2.7,3.4-2.7S21,3.4,21,4
	c0,0.3-0.1,0.6-0.2,0.9H28z M7.2,10.9v21h8.2v-4.6c0-1.1,0.9-2.1,2-2.1c1.1,0,2.1,0.9,2.1,2v0.1v4.6h8.2v-21H7.2z M8.8,25.3v5.2h1.9
	v-5.2H8.8z M12.1,25.3v5.2h1.9v-5.2H12.1z M24.3,25.3v5.2h1.9v-5.2H24.3z M21,25.3v5.2H23v-5.2H21z M13.9,21H8.8v2.1h5.2V21z
	 M13.9,16.7H8.8v2.1h5.2V16.7z M13.9,12.4H8.8v2.1h5.2V12.4z M21,23.1h5.2V21h-5.2C21,21,21,23.1,21,23.1z M21,18.8h5.2v-2.1h-5.2
	C21,16.7,21,18.8,21,18.8z M21,14.5h5.2v-2.1h-5.2C21,12.4,21,14.5,21,14.5z M15.4,23.1h4.1V21h-4.1V23.1z M15.4,18.8h4.1v-2.1h-4.1
	V18.8z M15.4,14.5h4.1v-2.1h-4.1V14.5z M17.5,2.8c-1.1,0-1.9,0.5-1.9,1.2c0,0.3,0.1,0.6,0.3,0.9h3.2c0.2-0.2,0.3-0.5,0.3-0.8
	C19.4,3.3,18.7,2.8,17.5,2.8L17.5,2.8z M19.5,7.2h-4.1v1.5h4.1V7.2z M26.2,7.2h-5.2v1.5h5.2V7.2z M12,7.2h-1.2v1.5h1.2
	C12,8.7,12,7.2,12,7.2z"/>
</svg>
