<svg height="33.113" viewBox="0 0 173.805 33.113" width="173.805" xmlns="http://www.w3.org/2000/svg"><path d="m366.041 387.281h-.241v-22.843h-7.126v28.807h19.075v-5.964z" transform="translate(-328.157 -360.908)"/><path d="m409.168 364.438v15.179c0 3.269 0 8.209-5.4 8.209-4.993 0-5.41-4.056-5.41-8.209v-15.179h-7.13v16.23c0 3.963.227 7.461 3 10.161 2.057 2.029 5.534 3.192 9.538 3.192s7.476-1.164 9.542-3.193c2.769-2.7 2.994-6.2 2.994-10.16v-16.23z" transform="translate(-335.132 -360.908)"/><path d="m442.212 375.638-1.945-.585c-1.327-.427-3.548-1.142-3.548-3.027 0-1.833 2.093-2.688 3.509-2.688a8.123 8.123 0 0 1 4.96 1.814l2.789-5.435a19.789 19.789 0 0 0 -8.839-2.269c-5.9 0-9.862 3.852-9.862 9.586 0 5.448 2.928 6.672 7.749 8.044l.226.064c1.711.48 4.578 1.283 4.578 3.509 0 2.2-2.041 3.2-3.936 3.2-2.21 0-4.4-.955-6.688-2.9l-3.019 5.681a17.876 17.876 0 0 0 9.98 3.18 12.577 12.577 0 0 0 8.16-2.7c1.953-1.664 2.944-4.256 2.944-7.7 0-3.939-2.177-6.335-7.058-7.774z" transform="translate(-343.051 -360.696)"/><path d="m110.455 13.515h7.133v18.822h-7.133z"/><path d="m498.212 364.438-14.384 18.469v-18.469h-7.128v28.807h7.255l14.38-18.559v18.559h7.138v-28.807z" transform="translate(-353.445 -360.908)"/><path d="m520.443 364.438v28.807h16.18v-5.964h-9.048v-5.537h8.586v-5.961h-8.586v-5.383h9.048v-5.966z" transform="translate(-362.818 -360.908)"/><path d="m44.162 3.514h5.377v11.1h-5.377z"/><path d="m467.651 367.213a3.8 3.8 0 1 1 -3.8-3.8 3.808 3.808 0 0 1 3.8 3.8z" transform="translate(-349.876 -360.688)"/><path d="m342.246 363.514 1.483 6.062v22.676h-23.893v-22.676l1.483-6.062h7.171a2.467 2.467 0 0 1 -.163-.906c0-.609.415-2.662 3.457-2.662s3.457 2.053 3.457 2.662a2.457 2.457 0 0 1 -.163.906zm-20.7 6.062v20.969h8.192v-4.559a2.047 2.047 0 1 1 4.093 0v4.559h8.193v-20.969zm1.481 14.337v5.154h1.873v-5.154zm3.358 0v5.154h1.876v-5.154zm12.286 0v5.154h1.871v-5.154zm-3.359 0v5.154h1.876v-5.154zm-7.054-4.3h-5.231v2.143h5.231zm0-4.28h-5.231v2.142h5.231zm0-4.28h-5.231v2.142h5.231zm7.051 10.7h5.231v-2.143h-5.231zm0-4.281h5.231v-2.142h-5.231zm0-4.28h5.231v-2.142h-5.231zm-5.572 8.561h4.094v-2.143h-4.094zm0-4.281h4.094v-2.142h-4.094zm0-4.28h4.094v-2.142h-4.094zm2.054-11.755c-1.113 0-1.865.544-1.865 1.223a1.26 1.26 0 0 0 .272.853h3.181a1.213 1.213 0 0 0 .281-.842c-.004-.679-.766-1.234-1.872-1.233zm2.021 4.437h-4.053v1.544h4.053zm6.708 0h-5.191v1.544h5.191zm-14.275 0h-1.2v1.544h1.2z" fill="#161615" transform="translate(-319.836 -359.946)"/></svg>